<svg xmlns="http://www.w3.org/2000/svg" viewBox="0 0 32.73 3.99"><defs><style>.cls-1{fill:#fff;}.cls-2{fill:#ff831d;}</style></defs><g id="Layer_2" data-name="Layer 2"><g id="Layer_1-2" data-name="Layer 1"><path class="cls-1" d="M2.56,3H1.3l-.45.92H0L2,0H3l.39,3.89H2.62Zm0-.69L2.45,1.4l0-.36V.63h0a6.49,6.49,0,0,1-.28.67l-.5,1Z"/><path class="cls-1" d="M5.68,1.76H7.17l-.43,2a3.92,3.92,0,0,1-.66.16A4.37,4.37,0,0,1,5.44,4,1.4,1.4,0,0,1,4.38,3.6,1.57,1.57,0,0,1,4,2.48,2.83,2.83,0,0,1,4.29,1.2,2,2,0,0,1,5.08.32,2.23,2.23,0,0,1,6.27,0,2.4,2.4,0,0,1,7.36.26L7.05.93A2.2,2.2,0,0,0,6.66.76,1.16,1.16,0,0,0,6.24.69a1.31,1.31,0,0,0-.73.22,1.51,1.51,0,0,0-.5.63,2.13,2.13,0,0,0-.18.88A1,1,0,0,0,5,3.08a.74.74,0,0,0,.59.22,1.55,1.55,0,0,0,.45-.07l.18-.79H5.53Z"/><path class="cls-1" d="M9.73,3.93H7.56L8.38.06h2.17l-.14.67H9.05l-.18.85h1.26L10,2.26H8.73l-.22,1H9.87Z"/><path class="cls-1" d="M13.67,3.93h-.91L11.82,1h0l0,.16c0,.38-.1.7-.15,1l-.39,1.82H10.5L11.32.06h.95l.9,2.85h0q.09-.58.18-1L13.76.06h.73Z"/><path class="cls-1" d="M16.86.68a1,1,0,0,0-.63.22,1.39,1.39,0,0,0-.45.63,2.25,2.25,0,0,0-.17.9,1,1,0,0,0,.18.65.69.69,0,0,0,.58.22,2.37,2.37,0,0,0,.89-.21v.69A2.82,2.82,0,0,1,16.2,4a1.37,1.37,0,0,1-1-.4,1.57,1.57,0,0,1-.38-1.12,2.89,2.89,0,0,1,.28-1.28A2.11,2.11,0,0,1,15.8.3,1.88,1.88,0,0,1,16.86,0a2.52,2.52,0,0,1,.58.06A2,2,0,0,1,18,.28l-.31.66a3.29,3.29,0,0,0-.46-.21A1.49,1.49,0,0,0,16.86.68Z"/><path class="cls-1" d="M19.44,1.63l1-1.57h.9L19.7,2.45l-.32,1.48h-.8l.31-1.48L18.27.06h.83Z"/><polygon class="cls-2" points="22.32 0.04 21.49 3.93 31.81 3.93 32.73 0.04 22.32 0.04"/><path class="cls-1" d="M24.14,1a.3.3,0,0,0-.16.05.3.3,0,0,0-.1.14.52.52,0,0,0,0,.21.2.2,0,0,0,.05.15.15.15,0,0,0,.13.06l.17,0V1.7a.58.58,0,0,1-.19,0,.24.24,0,0,1-.19-.08.28.28,0,0,1-.07-.21.53.53,0,0,1,.05-.25A.41.41,0,0,1,23.94,1a.36.36,0,0,1,.2-.06.38.38,0,0,1,.19,0l0,.08A.28.28,0,0,0,24.14,1Z"/><path class="cls-1" d="M25,1.25A.66.66,0,0,1,25,1.5a.39.39,0,0,1-.13.17.34.34,0,0,1-.2.06.28.28,0,0,1-.2-.08.29.29,0,0,1-.08-.21.66.66,0,0,1,0-.25A.4.4,0,0,1,24.54,1a.29.29,0,0,1,.2-.07.24.24,0,0,1,.19.08A.33.33,0,0,1,25,1.25ZM24.73,1a.19.19,0,0,0-.14.05.24.24,0,0,0-.1.14.64.64,0,0,0,0,.2.25.25,0,0,0,0,.16.18.18,0,0,0,.14.06.21.21,0,0,0,.13,0,.27.27,0,0,0,.1-.15.65.65,0,0,0,0-.2.25.25,0,0,0-.05-.16A.19.19,0,0,0,24.73,1Z"/><path class="cls-1" d="M25.45,1.58,25.79,1h.14l-.16.75h-.09l.09-.45c0-.1,0-.17.05-.21h0l-.36.66h-.08l-.08-.66h0q0,.08,0,.21l-.1.45h-.09L25.24,1h.13l.08.61Z"/><path class="cls-1" d="M26.52,1.16a.23.23,0,0,1-.08.2.44.44,0,0,1-.25.06h-.07l-.06.3H26L26.13,1h.17a.29.29,0,0,1,.17,0A.25.25,0,0,1,26.52,1.16Zm-.38.19h.07a.25.25,0,0,0,.16-.05.17.17,0,0,0,.06-.14.1.1,0,0,0,0-.09l-.1,0h-.08Z"/><path class="cls-1" d="M26.92,1.48h-.25l-.12.24h-.11L26.85,1H27l.09.75H27Zm0-.08V1.24c0-.08,0-.13,0-.17l0,.08s-.06.11-.14.25Z"/><path class="cls-1" d="M27.69,1.72h-.1l-.24-.63h0c0,.06,0,.14,0,.22l-.08.41h-.09L27.3,1h.1l.23.62h0s0-.07,0-.11a.56.56,0,0,1,0-.1L27.76,1h.09Z"/><path class="cls-1" d="M28.12,1.34,28.37,1h.11l-.33.47-.06.28H28l.06-.28L27.94,1H28Z"/><path class="cls-1" d="M23.64,3h-.09l.14-.67h-.21l0-.08H24l0,.08h-.21Z"/><path class="cls-1" d="M24.3,2.75h-.25L23.93,3h-.11l.41-.75h.1l.09.75h-.09Zm0-.09V2.51c0-.08,0-.14,0-.18l0,.08-.14.25Z"/><path class="cls-1" d="M24.9,2.59h.24L25.06,3l-.12,0h-.1a.28.28,0,0,1-.21-.07.29.29,0,0,1-.08-.21.54.54,0,0,1,.06-.25A.36.36,0,0,1,25,2.22h.11l.11,0,0,.09-.08,0-.1,0a.25.25,0,0,0-.16.06.31.31,0,0,0-.11.14.65.65,0,0,0,0,.2.25.25,0,0,0,.05.16.25.25,0,0,0,.15.05l.13,0L25,2.67h-.15Z"/><path class="cls-1" d="M25.24,3l.15-.75h.1l-.14.67h.28V3Z"/><path class="cls-1" d="M25.94,3h-.27l0,0,.09,0,.12-.61-.08,0v0h.27v0L26,2.3l-.13.61.08,0Z"/><path class="cls-1" d="M26.63,3h-.1l-.23-.62h0a1,1,0,0,1,0,.21L26.17,3h-.09l.16-.75h.1l.23.62h0s0-.07,0-.11a.51.51,0,0,0,0-.09l.09-.42h.09Z"/><path class="cls-1" d="M27.21,3h-.38L27,2.23h.38l0,.08h-.29l0,.24h.27v.08H27l-.06.27h.29Z"/><path class="cls-1" d="M28.16,3h-.09l.07-.35h-.33L27.74,3h-.1l.16-.75h.1l-.07.32h.33l.07-.32h.09Z"/><path class="cls-1" d="M28.74,3h-.38l.16-.75h.38l0,.08h-.29l-.05.24h.27v.08h-.27l-.06.27h.29Z"/><path class="cls-1" d="M29.06,2.67,29,3h-.1l.16-.75h.17c.15,0,.23.06.23.19a.22.22,0,0,1-.19.23L29.4,3h-.11l-.11-.31Zm0-.08h.08a.21.21,0,0,0,.15,0,.17.17,0,0,0,.05-.12.12.12,0,0,0,0-.09.16.16,0,0,0-.11,0h-.08Z"/><path class="cls-1" d="M29.89,3h-.38l.16-.75h.38l0,.08h-.29l0,.24H30v.08h-.28l-.05.27h.29Z"/></g></g></svg>